<svg width="18" height="24" viewBox="0 0 18 24" fill="none" xmlns="http://www.w3.org/2000/svg">
<path d="M17 23.2L16.5008 23.824C16.6184 23.9179 16.7602 23.9768 16.9098 23.9938C17.0593 24.0107 17.2107 23.9852 17.3464 23.92C17.4821 23.8548 17.5966 23.7527 17.6769 23.6253C17.7571 23.498 17.7998 23.3505 17.8 23.2H17ZM17 0.8H17.8V0H17V0.8ZM1.00001 0.8V0H0.200012V0.8H1.00001ZM1.00001 23.2H0.200012C0.200226 23.3505 0.24291 23.498 0.323157 23.6253C0.403404 23.7527 0.517957 23.8548 0.653653 23.92C0.789349 23.9852 0.940681 24.0107 1.09026 23.9938C1.23983 23.9768 1.38158 23.9179 1.49921 23.824L1.00001 23.2ZM9.00001 16.8L9.49921 16.176C9.35745 16.0628 9.18143 16.0011 9.00001 16.0011C8.8186 16.0011 8.64257 16.0628 8.50081 16.176L9.00001 16.8ZM17.8 23.2V0.8H16.2V23.2H17.8ZM0.200012 0.8V23.2H1.80001V0.8H0.200012ZM1.49921 23.824L9.49921 17.424L8.50081 16.176L0.500812 22.576L1.49921 23.824ZM8.50081 17.424L16.5008 23.824L17.4992 22.576L9.49921 16.176L8.50081 17.424ZM17 0H1.00001V1.6H17V0Z" fill="#8C8B97"/>
</svg>
