<svg width="14" height="14" viewBox="0 0 14 14" fill="none" xmlns="http://www.w3.org/2000/svg">
<path d="M12.8422 7.33907C13.1047 6.99219 13.25 6.56719 13.25 6.125C13.25 5.42344 12.8578 4.75938 12.2266 4.38906C12.0641 4.29374 11.879 4.24358 11.6906 4.24375H7.94375L8.0375 2.32344C8.05938 1.85938 7.89531 1.41875 7.57656 1.08281C7.42013 0.917234 7.23141 0.785491 7.02206 0.695729C6.8127 0.605967 6.58716 0.560092 6.35938 0.56094C5.54688 0.56094 4.82812 1.10781 4.6125 1.89063L3.27031 6.75H1.25C0.973437 6.75 0.75 6.97344 0.75 7.25V12.9375C0.75 13.2141 0.973437 13.4375 1.25 13.4375H10.6453C10.7891 13.4375 10.9297 13.4094 11.0594 13.3531C11.8031 13.0359 12.2828 12.3094 12.2828 11.5031C12.2828 11.3063 12.2547 11.1125 12.1984 10.925C12.4609 10.5781 12.6062 10.1531 12.6062 9.71094C12.6062 9.51406 12.5781 9.32031 12.5219 9.13281C12.7844 8.78594 12.9297 8.36094 12.9297 7.91875C12.9266 7.72188 12.8984 7.52657 12.8422 7.33907ZM1.875 12.3125V7.875H3.14062V12.3125H1.875ZM11.8188 6.79688L11.4766 7.09375L11.6938 7.49063C11.7653 7.62136 11.8024 7.76816 11.8016 7.91719C11.8016 8.175 11.6891 8.42031 11.4953 8.58906L11.1531 8.88594L11.3703 9.28281C11.4419 9.41355 11.479 9.56034 11.4781 9.70938C11.4781 9.96719 11.3656 10.2125 11.1719 10.3813L10.8297 10.6781L11.0469 11.075C11.1184 11.2057 11.1555 11.3525 11.1547 11.5016C11.1547 11.8516 10.9484 12.1672 10.6297 12.3109H4.14062V7.825L5.69531 2.19219C5.7354 2.04782 5.82146 1.92044 5.94044 1.82937C6.05943 1.7383 6.20485 1.6885 6.35469 1.6875C6.47344 1.6875 6.59062 1.72188 6.68437 1.79219C6.83906 1.90781 6.92188 2.08281 6.9125 2.26875L6.7625 5.36875H11.675C11.9531 5.53906 12.125 5.82656 12.125 6.125C12.125 6.38281 12.0125 6.62656 11.8188 6.79688Z" fill="#A4A3A9"/>
</svg>
