<svg width="18" height="24" viewBox="0 0 18 24" fill="none" xmlns="http://www.w3.org/2000/svg">
<path d="M13.8 5.59676C13.7998 6.22689 13.6755 6.85081 13.4341 7.4329C13.1928 8.01499 12.8392 8.54384 12.3934 8.98927C11.9477 9.43469 11.4186 9.78796 10.8364 10.0289C10.2541 10.2699 9.63012 10.3938 8.99999 10.3936C8.05095 10.3932 7.12333 10.1115 6.33441 9.58399C5.54549 9.05647 4.93072 8.30686 4.56783 7.42995C4.20495 6.55303 4.11024 5.5882 4.2957 4.65746C4.48116 3.72673 4.93845 2.87189 5.60974 2.20104C6.28103 1.5302 7.13618 1.07348 8.06704 0.888643C8.9979 0.703806 9.96266 0.799152 10.8393 1.16262C11.716 1.5261 12.4652 2.14137 12.9922 2.93064C13.5192 3.71991 13.8003 4.64772 13.8 5.59676V5.59676Z" stroke="#8C8B97" stroke-linecap="square"/>
<path d="M17 23.1839H1V19.9903C1 18.7173 1.50571 17.4964 2.40589 16.5962C3.30606 15.696 4.52696 15.1903 5.8 15.1903H12.2C13.473 15.1903 14.6939 15.696 15.5941 16.5962C16.4943 17.4964 17 18.7173 17 19.9903V23.1855V23.1839Z" stroke="#8C8B97" stroke-linecap="square"/>
</svg>
